<svg height="512" viewBox="0 0 512 512" width="512" xmlns="http://www.w3.org/2000/svg"><g id="Filled_outline" data-name="Filled outline"><path d="m408 120-2.61 24-37.39 344h-224l-3.47-31.96-33.92-312.04-2.61-24z" fill="#e0e0de"/><path d="m408 120-2.61 24-37.39 344h-224l-3.47-31.96c115.47-48.04 203.47-168.04 232.41-336.04z" fill="#d9d9d7"/><path d="m80 72h352v48h-352z" fill="#92563a"/><path d="m400 72h-288l16-48h256z" fill="#875036"/><path d="m416 200-24 208h-272l-24-208z" fill="#ffb531"/><path d="m408 120-2.61 24h-298.78l-2.61-24z" fill="#d9d9d7"/><path d="m344 72h88v48h-88z" fill="#875036"/><path d="m432 64h-26.234l-14.176-42.53a8 8 0 0 0 -7.59-5.47h-256a8 8 0 0 0 -7.59 5.47l-14.176 42.53h-26.234a8 8 0 0 0 -8 8v48a8 8 0 0 0 8 8h319.083l-6.96 64h-272.246l-5.314-48.865-15.906 1.73 5.126 47.135h-7.783a8 8 0 0 0 -7.947 8.917l24 208a8 8 0 0 0 7.947 7.083h8.823l7.924 72.865a8 8 0 0 0 7.953 7.135h224a8 8 0 0 0 7.953-7.135l7.925-72.865h7.422a8 8 0 0 0 7.947-7.083l24-208a8 8 0 0 0 -7.947-8.917h-7.783l6.96-64h16.823a8 8 0 0 0 8-8v-48a8 8 0 0 0 -8-8zm-70.477 416h-209.646l-6.96-64h223.566zm23.347-80h-257.74l-22.153-192h302.046zm-251.104-368h244.468l10.666 32h-265.8zm290.234 80h-336v-32h336z"/><path d="m136 223.601h15.999v160.798h-15.999z" transform="matrix(.995 -.1 .1 .995 -29.534 15.837)"/><path d="m172 223.9h16v160.2h-16z" transform="matrix(.999 -.05 .05 .999 -14.956 9.368)"/><path d="m208 224h16v160h-16z"/><path d="m251.9 296h160.2v16h-160.2z" transform="matrix(.05 -.999 .999 .05 11.804 620.409)"/><path d="m288 224h16v160h-16z"/><path d="m248 224h16v160h-16z"/><path d="m287.601 296h160.798v15.999h-160.798z" transform="matrix(.099 -.995 .995 .099 28.895 639.929)"/></g></svg>